<svg width="192" height="192" viewBox="0 0 192 192" fill="none" xmlns="http://www.w3.org/2000/svg">
<path d="M149.496 34.1553C152.322 34.1553 154.121 35.9477 154.121 38.7644V139.978C154.121 148.94 148.79 154.125 139.67 154.125H69.75V143.818H137.486C141.532 143.818 143.78 141.578 143.78 137.417V55.969C143.78 54.1877 143.625 52.3127 140.89 49.9741C138.155 47.6355 138 45.9377 138 43.7627V38.7644C138 35.9477 139.862 34.1553 142.624 34.1553H149.496Z" fill="#00A24C" fill-opacity="0.8"/>
<path d="M25.0236 87.8689C26.8219 87.8689 28.2992 86.9085 29.6479 85.8204L93.9398 31.9831C94.6462 31.4069 95.4808 31.0869 96.1878 31.0869C96.958 31.0869 97.7288 31.4069 98.4358 31.9831L162.791 85.8204C164.076 86.9085 165.553 87.8689 167.352 87.8689C170.82 87.8689 172.875 85.372 172.875 82.7475C172.875 81.2752 172.297 79.7388 170.82 78.5865L154.121 64.6103L138 51.1174L103.895 22.5728C101.454 20.5243 98.8206 19.5 96.1878 19.5C93.5544 19.5 90.9211 20.5243 88.4804 22.5728L21.5553 78.5865C20.1423 79.7388 19.5 81.2752 19.5 82.7475C19.5 85.372 21.5553 87.8689 25.0236 87.8689Z" fill="#00A24C" fill-opacity="0.8"/>
<path d="M76.2964 100.5C75.4907 100.5 74.9414 101.013 74.8681 101.855C73.4766 113.171 72.9273 113.464 61.4648 115.331C60.5127 115.441 60 115.917 60 116.76C60 117.565 60.5127 118.041 61.2817 118.151C72.854 120.385 73.4766 120.312 74.8681 131.591C74.9414 132.47 75.4907 132.983 76.2964 132.983C77.0654 132.983 77.6514 132.47 77.7246 131.628C79.1895 120.165 79.6289 119.836 91.2744 118.151C92.0069 118.078 92.5561 117.565 92.5561 116.76C92.5561 115.954 92.0069 115.441 91.2744 115.331C79.6289 113.097 79.2261 113.097 77.7246 101.782C77.6514 101.013 77.0654 100.5 76.2964 100.5Z" fill="#1BDC25" fill-opacity="0.8"/>
<path d="M103.788 57C102.726 57 101.884 57.769 101.738 58.9043C98.5516 82.0854 95.3657 85.1618 72.5142 88.2012C71.3423 88.311 70.5 89.1533 70.5 90.252C70.5 91.3872 71.3423 92.2662 72.5142 92.376C95.439 94.866 98.735 98.4552 101.738 121.6C101.884 122.735 102.726 123.54 103.788 123.54C104.887 123.54 105.693 122.735 105.876 121.6C108.915 98.4552 112.175 94.866 135.099 92.376C136.308 92.2662 137.077 91.3872 137.077 90.252C137.077 89.1533 136.308 88.311 135.099 88.2012C112.175 85.6377 108.915 82.0854 105.876 58.9043C105.693 57.769 104.887 57 103.788 57Z" fill="#1BDC25" fill-opacity="0.8"/>
<path d="M48.5949 137.417C48.5949 141.578 50.8428 143.818 54.9533 143.818H69.7498V154.125H52.7696C43.5851 154.125 38.2542 149.004 38.2542 139.977C38.2542 139.977 38.2594 78.0224 38.2542 71.3549C38.2491 64.6875 38.2498 64.5937 43.4245 60.283C48.5623 56.0032 48.5625 56.0614 48.5942 62.5567L48.5949 62.6981C48.6274 69.3337 48.5949 137.417 48.5949 137.417Z" fill="#00A24C" fill-opacity="0.8"/>
</svg>
